<svg width="8" height="8" viewBox="0 0 8 8" fill="none" xmlns="http://www.w3.org/2000/svg">
<path d="M0.5 4C0.5 4.92826 0.868749 5.8185 1.52513 6.47487C2.1815 7.13125 3.07174 7.5 4 7.5C4.92826 7.5 5.8185 7.13125 6.47487 6.47487C7.13125 5.8185 7.5 4.92826 7.5 4C7.5 3.07174 7.13125 2.1815 6.47487 1.52513C5.8185 0.868749 4.92826 0.5 4 0.5C3.07174 0.5 2.1815 0.868749 1.52513 1.52513C0.868749 2.1815 0.5 3.07174 0.5 4ZM8 4C8 5.06087 7.57857 6.07828 6.82843 6.82843C6.07828 7.57857 5.06087 8 4 8C2.93913 8 1.92172 7.57857 1.17157 6.82843C0.421427 6.07828 0 5.06087 0 4C0 2.93913 0.421427 1.92172 1.17157 1.17157C1.92172 0.421427 2.93913 0 4 0C5.06087 0 6.07828 0.421427 6.82843 1.17157C7.57857 1.92172 8 2.93913 8 4ZM2.75 2.001H4.305C5.16 2.001 5.6755 2.4875 5.6755 3.231C5.6755 3.8 5.342 4.201 4.928 4.351L5.75 6H4.99L4.26 4.462H3.418V6H2.75V2.001ZM3.4175 2.546V3.9345H4.192C4.6895 3.9345 4.9785 3.703 4.9785 3.2545C4.9785 2.798 4.6805 2.546 4.21 2.546H3.4175Z" fill="#1F3E97"/>
</svg>
